<svg width="58" height="51" viewBox="0 0 58 51" fill="none" xmlns="http://www.w3.org/2000/svg">
<g clip-path="url(#clip0_42_66)">
<path d="M51.557 34.3298L13.9253 36.1608C13.1687 36.2001 12.5298 35.6136 12.4914 34.8618L11.6078 16.6626C11.5686 15.9059 12.155 15.267 12.9068 15.2287L50.5433 13.3968C51.3 13.3576 51.9389 13.944 51.9772 14.6958L52.8609 32.8951C52.8953 33.6525 52.3136 34.2906 51.557 34.3298Z" fill="#B6CDEF"/>
<path d="M11.7902 35.159C11.7749 35.0724 11.7636 34.9802 11.758 34.8919L10.8743 16.6927C10.845 16.1327 11.0374 15.593 11.4156 15.1793C11.7939 14.7655 12.311 14.5206 12.871 14.4913L50.5075 12.6594C51.663 12.6044 52.654 13.5006 52.709 14.6561L53.5926 32.8553C53.6476 34.0108 52.7514 35.0017 51.5959 35.0567L13.9594 36.8886C13.3994 36.918 12.8597 36.7256 12.446 36.3473C12.0978 36.0319 11.8707 35.6158 11.7902 35.159ZM51.2359 14.653C51.1807 14.3405 50.9025 14.1119 50.5783 14.1294L12.941 15.9565C12.7693 15.9669 12.6134 16.039 12.5014 16.1629C12.3845 16.2876 12.3291 16.4511 12.3395 16.6228L13.2232 34.822C13.2328 34.9889 13.3057 35.1496 13.4296 35.2616C13.5543 35.3784 13.7178 35.4339 13.8895 35.4234L51.522 33.5972C51.8711 33.5803 52.1452 33.2791 52.1283 32.93L51.2455 14.7356C51.2404 14.7068 51.2409 14.6819 51.2359 14.653Z" fill="#0F53A8"/>
<path d="M47.4065 23.1076L11.2957 33.8728C10.5704 34.09 9.80872 33.6789 9.59159 32.9536L4.38555 15.4918C4.16842 14.7665 4.57951 14.0048 5.30478 13.7877L41.4157 3.02249C42.1409 2.80536 42.9026 3.21645 43.1197 3.94172L48.3258 21.4036C48.5429 22.1288 48.127 22.8914 47.4065 23.1076Z" fill="#B6CDEF"/>
<path d="M3.62753 15.4668C3.44523 14.4329 4.06567 13.3963 5.09756 13.0904L41.2085 2.32523C42.3204 1.9953 43.4927 2.62651 43.8227 3.73845L49.0279 21.1955C49.3578 22.3074 48.7266 23.4798 47.6146 23.8097L11.5038 34.5749C10.3918 34.9048 9.21947 34.2736 8.88953 33.1617L3.68349 15.6998C3.66031 15.6246 3.64109 15.5437 3.62753 15.4668ZM47.6412 21.6829C47.637 21.6589 47.6328 21.6349 47.6237 21.6117L42.4177 4.14981C42.3688 3.9849 42.2607 3.85024 42.1083 3.773C41.9558 3.69576 41.7887 3.67566 41.6238 3.72457L5.51769 14.4889C5.18306 14.5876 4.98813 14.9442 5.0916 15.278L10.2976 32.7399C10.3963 33.0745 10.753 33.2694 11.0867 33.166L47.1976 22.4008C47.5091 22.3111 47.6964 21.9955 47.6412 21.6829Z" fill="#0F53A8"/>
<path d="M15.4305 22.9051L10.998 24.2271C10.2728 24.4443 9.51109 24.0332 9.29396 23.3079L7.97196 18.8754C7.75482 18.1501 8.16592 17.3885 8.89118 17.1713L13.3237 15.8493C14.049 15.6322 14.8106 16.0433 15.0278 16.7686L16.3498 21.2011C16.5669 21.9263 16.1566 22.6928 15.4305 22.9051Z" fill="#89B7F5"/>
<path d="M7.21308 18.8456C7.03079 17.8118 7.65123 16.7752 8.68312 16.4693L13.1156 15.1473C14.2276 14.8174 15.3999 15.4486 15.7298 16.5605L17.0518 20.993C17.3818 22.105 16.7506 23.2773 15.6386 23.6072L11.2061 24.9292C10.0942 25.2592 8.92185 24.628 8.59191 23.516L7.2699 19.0835C7.24587 19.0035 7.2275 18.9274 7.21308 18.8456ZM15.6661 21.4853C15.6618 21.4612 15.6576 21.4372 15.6486 21.414L14.3265 16.9815C14.2279 16.6469 13.8712 16.4519 13.5374 16.5554L9.10495 17.8774C8.77032 17.9761 8.57538 18.3327 8.67886 18.6665L10.0009 23.099C10.0995 23.4336 10.4562 23.6286 10.79 23.5251L15.2225 22.2031C15.5339 22.1135 15.7212 21.7978 15.6661 21.4853Z" fill="#0F53A8"/>
<path d="M17.6699 14.9095C17.6063 14.5488 17.8205 14.1888 18.1831 14.0802L29.6578 10.6587C30.0437 10.5411 30.4543 10.7612 30.568 11.1527C30.6856 11.5386 30.4655 11.9492 30.074 12.0629L18.5993 15.4844C18.2134 15.602 17.8028 15.3819 17.6891 14.9904C17.6801 14.9672 17.675 14.9383 17.6699 14.9095ZM18.1285 18.0167C18.0649 17.6561 18.2791 17.296 18.6417 17.1874L33.8469 12.652C34.2327 12.5344 34.6434 12.7545 34.757 13.146C34.8747 13.5318 34.6545 13.9425 34.2631 14.0562L19.0579 18.5916C18.6721 18.7092 18.2614 18.4891 18.1478 18.0976C18.1379 18.0696 18.1336 18.0456 18.1285 18.0167ZM19.1008 21.2813C19.0372 20.9206 19.2514 20.5606 19.614 20.452L29.0818 17.6273C29.4676 17.5097 29.8783 17.7298 29.992 18.1213C30.1096 18.5071 29.8895 18.9178 29.498 19.0315L20.0302 21.8561C19.6444 21.9738 19.2337 21.7536 19.12 21.3622C19.1101 21.3341 19.105 21.3053 19.1008 21.2813Z" fill="#0F53A8"/>
<path d="M39.2443 6.45454C39.1807 6.09389 39.3949 5.73385 39.7575 5.62528C40.1433 5.50767 40.554 5.72778 40.6677 6.11927L41.3009 8.24868C41.4186 8.63451 41.1984 9.04518 40.807 9.15884C40.4155 9.27249 40.0105 9.05633 39.8968 8.66485L39.2635 6.53544C39.2545 6.51224 39.2494 6.48339 39.2443 6.45454ZM40.5001 10.6805C40.4365 10.3199 40.6507 9.95986 41.0133 9.85129C41.3992 9.73368 41.8098 9.95379 41.9235 10.3453L42.5568 12.4747C42.6744 12.8605 42.4543 13.2712 42.0628 13.3848C41.677 13.5025 41.2663 13.2823 41.1526 12.8909L40.5194 10.7614C40.5151 10.7374 40.5052 10.7094 40.5001 10.6805ZM41.7608 14.9057C41.6972 14.5451 41.9114 14.185 42.274 14.0765C42.6598 13.9588 43.0705 14.179 43.1842 14.5704L43.8174 16.6999C43.9351 17.0857 43.7149 17.4964 43.3235 17.61C42.9376 17.7276 42.527 17.5075 42.4133 17.116L41.78 14.9866C41.7758 14.9626 41.7659 14.9346 41.7608 14.9057ZM43.0214 19.1309C42.9579 18.7702 43.172 18.4102 43.5347 18.3016C43.9205 18.184 44.3312 18.4041 44.4448 18.7956L45.0781 20.925C45.1909 21.3117 44.9756 21.7215 44.5841 21.8352C44.1983 21.9528 43.7876 21.7327 43.674 21.3412L43.0407 19.2118C43.0308 19.1838 43.0265 19.1597 43.0214 19.1309Z" fill="#0F53A8"/>
</g>
<defs>
<clipPath id="clip0_42_66">
<rect width="50" height="50" fill="white" transform="translate(49.279 -6.96143) rotate(80)"/>
</clipPath>
</defs>
</svg>
